HIERARCHY
ROOT Hips
{
	OFFSET 0.000000 0.000000 0.000000
	CHANNELS 6 Xposition Yposition Zposition Yrotation Xrotation Zrotation
	JOINT Spine
	{
		OFFSET 0.000000 -0.000000 1.489414
		CHANNELS 3 Yrotation Xrotation Zrotation
		JOINT Spine1
		{
			OFFSET 0.000000 -0.000001 4.064482
			CHANNELS 3 Yrotation Xrotation Zrotation
			JOINT Neck
			{
				OFFSET 0.000000 -0.000001 4.427754
				CHANNELS 3 Yrotation Xrotation Zrotation
				JOINT Head
				{
					OFFSET 0.000000 -0.363272 2.815356
					CHANNELS 3 Yrotation Xrotation Zrotation
					End Site
					{
						OFFSET 0.000000 -0.000001 3.632717
					}
				}
			}
			JOINT LeftShoulder
			{
				OFFSET 0.731535 0.096024 3.575184
				CHANNELS 3 Yrotation Xrotation Zrotation
				JOINT LeftArm
				{
					OFFSET 2.610319 0.000000 0.000000
					CHANNELS 3 Yrotation Xrotation Zrotation
					JOINT LeftForeArm
					{
						OFFSET 5.118421 0.000000 0.000000
						CHANNELS 3 Yrotation Xrotation Zrotation
						JOINT LeftHand
						{
							OFFSET 4.756909 0.000000 0.000000
							CHANNELS 3 Yrotation Xrotation Zrotation
							End Site
							{
								OFFSET 2.724539 0.000000 0.000000
							}
						}
					}
				}
			}
			JOINT RightShoulder
			{
				OFFSET -0.721442 0.096024 3.575184
				CHANNELS 3 Yrotation Xrotation Zrotation
				JOINT RightArm
				{
					OFFSET -2.610319 0.000000 0.000000
					CHANNELS 3 Yrotation Xrotation Zrotation
					JOINT RightForeArm
					{
						OFFSET -5.118422 0.000000 0.000000
						CHANNELS 3 Yrotation Xrotation Zrotation
						JOINT RightHand
						{
							OFFSET -4.756909 0.000000 0.000000
							CHANNELS 3 Yrotation Xrotation Zrotation
							End Site
							{
								OFFSET -2.724539 0.000000 0.000000
							}
						}
					}
				}
			}
		}
	}
	JOINT LeftUpLeg
	{
		OFFSET 1.816359 0.000000 0.000000
		CHANNELS 3 Yrotation Xrotation Zrotation
		JOINT LeftLeg
		{
			OFFSET 0.000000 0.000001 -7.638974
			CHANNELS 3 Yrotation Xrotation Zrotation
			JOINT LeftFoot
			{
				OFFSET 0.000000 0.000001 -8.008609
				CHANNELS 3 Yrotation Xrotation Zrotation
				JOINT LeftToeBase
				{
					OFFSET 0.000000 -2.724539 -1.180634
					CHANNELS 3 Yrotation Xrotation Zrotation
					End Site
					{
						OFFSET 0.000000 -0.726544 0.000000
					}
				}
			}
		}
	}
	JOINT RightUpLeg
	{
		OFFSET -1.816359 0.000000 0.000000
		CHANNELS 3 Yrotation Xrotation Zrotation
		JOINT RightLeg
		{
			OFFSET 0.000000 0.000001 -7.638974
			CHANNELS 3 Yrotation Xrotation Zrotation
			JOINT RightFoot
			{
				OFFSET 0.000000 0.000001 -8.008609
				CHANNELS 3 Yrotation Xrotation Zrotation
				JOINT RightToeBase
				{
					OFFSET 0.000000 -2.724539 -1.180634
					CHANNELS 3 Yrotation Xrotation Zrotation
					End Site
					{
						OFFSET 0.000000 -0.726544 0.000000
					}
				}
			}
		}
	}
}
MOTION
Frames: 9
Frame Time: 0.041667
1.266585 0.147483 16.001276 -0.733415 3.682163 1.124260 2.089816 -18.238340 -2.409523 -5.144276 18.314971 -1.534994 -5.809329 9.852773 4.230652 5.725052 5.634321 6.660265 -21.113320 -8.213578 3.126276 14.356622 0.390979 -10.885602 -5.045220 -9.399101 -8.583996 7.390808 -8.906706 -1.865258 17.757409 -2.249667 -10.528737 2.043835 28.296089 23.116541 48.315539 -33.293672 74.986304 34.595622 4.569983 3.818931 2.506345 -6.898632 -2.129779 -0.964984 13.556956 1.614534 -2.797938 -5.533752 21.762844 0.000000 0.000002 -0.000002 -1.229186 -5.827317 0.896921 -1.934274 12.771490 -1.168734 1.122220 -12.180428 -21.376052 -0.000000 -0.000001 0.000001 
1.272045 0.150490 16.002228 -0.756608 3.756178 1.126035 2.090044 -18.209021 -2.406474 -5.121619 18.230641 -1.526507 -5.796369 9.814893 4.253408 5.725597 5.621156 6.678435 -21.091894 -8.190247 3.145784 14.384971 0.272915 -10.920603 -5.023702 -9.344436 -8.587814 7.397459 -8.853615 -1.859891 17.779199 -2.241973 -10.494420 1.990754 28.361865 23.043057 48.376481 -33.391005 74.979023 34.590892 4.534917 3.744089 2.549680 -7.482965 -2.144150 -0.892908 14.541628 1.326926 -2.899197 -5.830094 22.082092 0.000000 0.000003 0.000000 -1.137021 -5.920659 0.906263 -2.029459 12.794607 -1.168396 1.145135 -12.185747 -21.393882 0.000000 0.000001 0.000002 
1.278333 0.154317 16.003475 -0.779486 3.831244 1.143856 2.091439 -18.156586 -2.413423 -5.099094 18.124056 -1.520534 -5.765555 9.753570 4.276093 5.704047 5.636433 6.688910 -21.077539 -8.169664 3.155908 14.411769 0.258949 -10.921099 -5.020715 -9.359456 -8.612197 7.382823 -8.868423 -1.854113 17.791835 -2.247714 -10.500183 1.978048 28.404265 23.019751 48.443690 -33.454782 74.966831 34.552100 4.531154 3.709921 2.599498 -8.128794 -2.128295 -0.835884 15.651066 1.091263 -3.196124 -6.205203 22.259808 -0.000000 0.000002 -0.000001 -1.040015 -6.017964 0.916561 -2.133538 12.810380 -1.213688 1.143038 -12.181565 -21.398546 0.000001 -0.000001 0.000002 
1.285880 0.158497 16.004795 -0.801674 3.903082 1.191614 2.070406 -18.097561 -2.434605 -5.034173 18.017585 -1.513706 -5.748858 9.700458 4.293970 5.691918 5.615066 6.697840 -21.080447 -8.126617 3.173645 14.443367 0.221286 -10.946159 -5.021750 -9.372618 -8.615118 7.399987 -8.883719 -1.813377 17.785393 -2.221310 -10.505346 1.926467 28.295100 22.977388 47.714281 -33.691185 75.363911 33.169714 2.958968 6.715861 2.658705 -8.832514 -2.219103 -0.750827 16.892250 0.725808 -3.375087 -6.791274 22.695153 -0.000000 0.000001 -0.000001 -0.934711 -6.113754 0.925463 -2.243380 12.816915 -1.646666 1.084781 -12.165498 -21.037384 0.000001 0.000000 -0.000000 
1.293861 0.162593 16.006151 -0.810385 3.978066 1.251187 2.044635 -18.047872 -2.444373 -4.984992 17.928758 -1.506794 -5.741858 9.630486 4.286876 5.691040 5.597591 6.684499 -21.065528 -8.088379 3.148545 14.461496 0.178380 -10.953477 -5.046310 -9.366979 -8.614178 7.436319 -8.873182 -1.852721 17.789921 -2.258703 -10.497786 1.886033 28.274126 22.894751 48.397535 -33.451343 75.170767 34.647723 4.684262 3.595165 2.733758 -9.557712 -2.234373 -0.705637 18.227454 0.454187 -3.621774 -7.461685 22.925719 0.000001 0.000001 0.000001 -0.840158 -6.215963 0.936072 -2.355398 12.850765 -1.702001 1.064786 -12.169217 -21.066146 0.000000 0.000000 -0.000001 
1.303928 0.167451 16.007917 -0.805569 4.049679 1.339241 1.995981 -17.977104 -2.460001 -4.928916 17.822074 -1.501342 -5.730324 9.551674 4.278763 5.682037 5.579355 6.667192 -21.056143 -8.044878 3.145550 14.498262 0.054922 -11.016392 -5.042076 -9.363862 -8.580680 7.452888 -8.873012 -1.830285 17.801946 -2.208860 -10.510372 1.846195 28.288594 22.801193 48.580892 -33.538722 75.077275 34.660666 4.702462 3.573054 2.786251 -10.284194 -2.508205 -0.525018 19.447324 0.423576 -3.891502 -7.985525 23.117762 -0.000001 0.000003 -0.000005 -0.756866 -6.306046 0.945201 -2.456372 12.877343 -1.601110 1.097342 -12.149014 -21.271311 0.000001 0.000001 -0.000001 
1.314385 0.170765 16.009632 -0.798461 4.126912 1.448164 1.969312 -17.944148 -2.498384 -4.914496 17.757722 -1.510664 -5.696559 9.473496 4.275049 5.681059 5.528272 6.649500 -21.031068 -8.004836 3.126341 14.539161 0.002746 -11.043440 -5.071021 -9.385323 -8.570451 7.483983 -8.889389 -1.875872 17.824492 -2.199246 -10.522872 1.815840 28.256684 22.692530 47.826129 -33.880795 75.475359 33.186622 2.946939 6.681099 2.825769 -10.961282 -2.773050 -0.277919 20.533161 0.299832 -4.456870 -8.336353 23.396851 0.000001 0.000001 0.000002 -0.692918 -6.392229 0.954720 -2.522506 12.868995 -1.971623 1.019088 -12.124324 -21.031421 0.000000 0.000000 0.000002 
1.354071 0.115038 16.039528 0.063187 3.014000 2.677850 0.580320 -17.284070 -3.215098 -4.144299 18.207126 -1.721071 -5.702003 9.366528 4.256962 5.658198 5.489595 6.620813 -21.033801 -8.011913 3.081331 14.545337 0.048483 -11.018027 -5.087861 -9.437132 -8.582455 7.503266 -8.940786 -1.850825 17.794181 -2.227673 -10.523035 1.779868 28.169543 22.549438 47.784079 -33.887700 75.596684 33.192776 2.985659 6.701188 2.393675 -10.208003 -4.249696 -0.194351 21.361401 0.626775 -4.815931 -8.679360 23.404377 0.000001 0.000000 -0.000002 -1.206086 -4.591575 0.678815 -2.982268 12.012958 -2.528279 0.682532 -11.263960 -21.455579 0.000000 0.000003 0.000000 
1.365544 0.120902 16.038685 0.010250 3.116704 2.716988 0.611481 -17.232994 -3.176939 -4.129153 18.114749 -1.700844 -5.715864 9.282715 4.217911 5.680446 5.409941 6.579406 -21.043231 -8.010534 3.039298 14.595457 0.050343 -11.033615 -5.127362 -9.475095 -8.564205 7.513129 -8.977015 -1.842916 17.797229 -2.119246 -10.557108 1.723775 28.098048 22.432383 47.882252 -34.001737 75.560300 33.160428 2.948139 6.620806 2.390163 -10.853336 -4.723196 0.472934 22.317037 0.756005 -5.031649 -9.159516 23.963154 0.000001 0.000000 -0.000003 -1.099421 -4.774304 0.702185 -3.008271 12.142279 -2.549047 0.679693 -11.335037 -21.503739 0.000000 0.000001 0.000000 
